PathFileType	4	(X/Y/Z)	_05Apr_ss_11ms_01.trc
DataRate	CameraRate	NumFrames	NumMarkers	Units	OrigDataRate	OrigDataStartFrame	OrigNumFrames
200.000000	200.000000	6	42	mm	200.000000	4567	6114
Frame#	Time	LASI			RASI			LPSI			RPSI			LTH1			LTH2			LTH3			LTH4			LMFC			LLFC			LTB1			LTB2			LTB3			LTB4			LMMAL			LLMAL			LCAL			LToe			LMT1			LMT5			RTH1			RTH2			RTH3			RTH4			RMFC			RLFC			RTB1			RTB2			RTB3			RTB4			RMMAL			RLMAL			RCAL			RToe			RMT1			RMT5			C7			T10			LACR1			RACR1			CLAV			RBack			
		X1	Y1	Z1	X2	Y2	Z2	X3	Y3	Z3	X4	Y4	Z4	X5	Y5	Z5	X6	Y6	Z6	X7	Y7	Z7	X8	Y8	Z8	X9	Y9	Z9	X10	Y10	Z10	X11	Y11	Z11	X12	Y12	Z12	X13	Y13	Z13	X14	Y14	Z14	X15	Y15	Z15	X16	Y16	Z16	X17	Y17	Z17	X18	Y18	Z18	X19	Y19	Z19	X20	Y20	Z20	X21	Y21	Z21	X22	Y22	Z22	X23	Y23	Z23	X24	Y24	Z24	X25	Y25	Z25	X26	Y26	Z26	X27	Y27	Z27	X28	Y28	Z28	X29	Y29	Z29	X30	Y30	Z30	X31	Y31	Z31	X32	Y32	Z32	X33	Y33	Z33	X34	Y34	Z34	X35	Y35	Z35	X36	Y36	Z36	X37	Y37	Z37	X38	Y38	Z38	X39	Y39	Z39	X40	Y40	Z40	X41	Y41	Z41	X42	Y42	Z42	

4567	22.825	353.98291	971.51617	-830.80719	600.61121	971.26093	-842.53973	441.23233	985.32440	-655.14984	531.64893	986.35608	-657.42688	306.25412	797.80487	-873.95947	351.67999	819.81488	-911.54407	329.11743	776.17279	-918.10236	318.86725	723.44025	-928.07855	448.34271	506.94769	-951.82404	330.30426	521.10773	-940.24579	314.83905	382.12402	-915.92371	321.49835	346.50165	-948.94659	342.40860	300.47681	-970.67834	328.27963	391.90598	-974.72351	453.80515	111.50382	-984.12750	368.95816	85.60150	-955.49274	431.47260	47.76557	-889.03351	416.37344	65.34609	-1159.21060	451.34631	44.07100	-1101.99300	340.33664	40.62945	-1072.52540	655.32446	803.68317	-801.32715	664.61078	761.79474	-767.63434	666.89258	733.39032	-729.72400	655.71478	714.87323	-787.73151	510.48297	477.59204	-708.71576	632.58099	482.88843	-690.84790	610.25989	261.34680	-548.79956	622.36237	305.14859	-498.48883	616.64270	256.40488	-497.18735	602.66687	204.62776	-480.17316	519.23218	163.69402	-439.65833	602.54456	167.29497	-404.07239	536.67523	165.71303	-327.23755	561.77405	43.30559	-552.72400	524.28387	38.81772	-493.94284	631.83777	50.82241	-461.78683	477.51151	1468.09130	-710.57666	497.43042	1206.66810	-615.79504	296.59186	1425.87410	-742.03027	644.67932	1409.45420	-799.96619	463.54956	1373.09620	-841.12854	616.29419	1345.54000	-659.54559
4568	22.83	352.97318	972.68799	-831.54987	599.67731	971.89203	-842.85522	440.19864	985.79443	-655.71936	530.69550	986.64075	-657.94360	305.53299	797.83197	-874.60303	351.48560	819.86871	-912.29614	328.80515	776.25916	-918.75714	318.37094	723.34711	-928.37860	447.99005	506.92505	-950.91351	330.06165	520.95789	-939.14923	314.02643	382.41962	-913.36212	321.52539	346.25018	-946.72644	342.70978	300.05280	-968.03668	328.51016	391.47391	-972.80591	454.37903	111.21854	-978.93054	369.24219	85.65169	-950.42737	431.49438	47.77876	-883.62695	417.34122	64.01830	-1154.58370	451.43799	42.90200	-1096.43290	340.40750	40.62299	-1067.12100	654.07910	803.79535	-802.98865	664.09863	761.87756	-769.81555	665.92749	732.87421	-732.23120	654.98669	714.96411	-790.41986	510.96756	476.45187	-714.54852	633.04773	482.45160	-696.26520	610.96167	263.10519	-551.29858	622.77106	307.69696	-501.79767	617.17249	258.99844	-499.54758	603.53040	207.59871	-481.79147	519.81744	166.93307	-440.89359	603.08398	171.54909	-405.14532	537.06073	173.28400	-328.49973	561.71851	43.11856	-547.66119	524.61322	39.50890	-489.88730	631.91382	52.67768	-457.94876	476.66620	1468.74910	-710.55573	496.41794	1207.26670	-616.11646	295.76013	1426.74980	-742.43915	643.80823	1410.45920	-800.02600	462.81467	1374.05630	-841.30371	615.49658	1346.39950	-659.78192
4569	22.835	351.91031	973.77649	-832.22144	598.80048	972.61792	-843.12762	439.19800	986.32806	-656.28217	529.68994	986.95435	-658.30505	304.94949	798.13068	-875.52698	351.05692	819.73114	-912.95148	328.30014	776.08484	-919.30768	317.81479	723.26208	-928.67664	447.78839	506.77271	-949.45911	329.74805	520.74646	-937.62970	313.81586	382.44000	-911.38641	321.60907	346.08661	-944.47156	343.02411	299.64844	-965.01440	328.80774	391.12286	-970.79822	454.94580	110.85589	-973.63892	369.59515	85.64934	-945.23596	431.49124	47.79919	-878.05750	417.84543	62.65060	-1149.54700	451.70889	41.84736	-1091.05920	340.53082	40.53827	-1061.57730	652.99036	803.99298	-804.77887	663.10107	761.72137	-772.00110	665.12646	732.29785	-734.49023	654.38934	715.05035	-793.19037	512.63367	475.14407	-721.07825	633.55634	481.90323	-701.77997	611.65802	264.97131	-554.00299	623.11615	310.36954	-505.22150	617.70032	261.62012	-502.17987	603.99329	210.60992	-483.69290	520.61969	170.44557	-442.32373	603.48969	175.97244	-406.40125	537.27216	181.03026	-330.30466	561.64337	42.61517	-542.79303	524.48572	40.75957	-485.97336	631.98828	54.98744	-454.52609	475.69864	1469.47310	-710.50330	495.34232	1207.91390	-616.26019	294.96136	1427.64000	-742.78754	642.94855	1411.59510	-800.04266	462.12296	1375.10120	-841.51434	614.65594	1347.20800	-659.91449
4570	22.84	351.06351	974.97778	-832.85205	597.85681	973.22461	-843.24371	438.11667	986.90594	-656.78711	528.62323	987.37500	-658.67511	304.22015	798.24078	-876.16193	350.34857	819.54486	-913.72595	327.54456	775.84241	-919.87335	317.43430	722.72485	-928.44214	447.91672	506.57285	-947.19720	329.74881	520.50720	-935.88129	313.76321	382.42749	-909.02954	321.80075	345.82254	-941.75488	343.45923	299.42432	-962.14685	328.87021	390.56494	-968.25665	455.49423	110.47985	-968.20197	369.94138	85.68621	-940.07196	431.63449	47.75950	-872.59558	417.96222	61.35634	-1144.04130	452.37711	41.14578	-1085.72410	340.67804	40.54436	-1056.10680	651.73260	804.14948	-806.46069	662.17126	761.56134	-774.24017	664.44525	731.41785	-736.96680	653.83942	715.15137	-795.94293	512.36938	474.01367	-727.32062	634.10596	481.31567	-707.47681	612.39496	266.85739	-556.89380	623.39832	313.07861	-508.86798	618.11725	264.39148	-505.08862	604.43036	213.70471	-485.65570	521.47760	174.09547	-444.16946	603.99182	180.66580	-407.94705	537.42212	189.00752	-332.50455	561.76959	42.14401	-538.13544	524.69867	42.13284	-481.91022	632.14539	57.63006	-451.20615	474.80920	1470.21410	-710.42926	494.29510	1208.48850	-616.53656	294.12222	1428.57370	-743.13721	642.08643	1412.67070	-799.90540	461.26489	1375.96060	-841.52832	613.79449	1348.04800	-659.98871
4571	22.845	350.20355	975.99786	-833.44946	596.93561	973.83270	-843.18317	436.96414	987.68085	-657.13544	527.62964	987.79224	-658.98224	303.51965	798.29254	-876.59674	349.51990	819.24860	-914.43195	326.92062	775.52063	-920.08728	316.89529	722.36700	-928.17889	448.18680	506.31256	-944.31177	329.55826	520.22968	-934.00903	313.66141	382.67892	-906.60229	321.92889	345.59311	-938.96252	343.67627	298.96274	-958.76563	329.23782	390.27277	-965.79437	455.91174	110.23213	-962.76318	370.26782	85.64706	-934.70325	431.67517	47.81160	-867.01715	418.28983	60.18583	-1138.69260	452.68753	40.26363	-1080.18230	340.82114	40.52167	-1050.55600	650.59198	804.31256	-808.10291	661.27899	761.33435	-776.42188	663.37244	730.94446	-739.76508	653.27222	715.26685	-798.75055	512.90228	472.74799	-733.97400	634.65411	480.81400	-713.32709	612.93329	268.95468	-559.98987	623.55164	316.01785	-512.80090	618.55865	267.31165	-508.06491	604.90448	216.94366	-487.86954	522.07568	177.81201	-446.05023	604.42010	185.35677	-409.87100	537.77338	197.18436	-335.13351	561.93945	41.66805	-533.44647	524.78613	44.10645	-478.18033	632.36176	60.59329	-448.14398	473.88702	1471.00780	-710.27814	493.18323	1209.16980	-616.74512	293.32153	1429.54580	-743.49792	641.24982	1413.74460	-799.63947	460.62000	1377.10900	-841.74994	612.90906	1348.97220	-659.99866
4572	22.85	349.40442	977.06171	-834.09717	596.18408	974.47357	-843.06091	435.87488	988.41748	-657.57050	526.52075	988.28796	-659.08435	302.87894	798.41321	-876.88947	348.64752	819.28827	-915.18384	326.10583	775.25922	-920.24304	316.27567	721.95746	-927.69019	448.65088	505.93756	-940.90112	329.55014	519.86884	-931.89288	313.65216	382.39178	-903.60571	322.07370	345.27051	-935.68317	343.99197	298.69455	-955.33911	329.51001	389.78168	-962.83063	456.30344	109.96181	-957.33539	370.56537	85.70731	-929.45569	431.72461	47.73771	-861.48334	419.03192	59.61771	-1133.68630	452.90100	39.60484	-1074.73560	340.93063	40.55535	-1045.04030	649.55371	804.47443	-809.68060	660.41382	761.14655	-778.64276	662.47748	730.35767	-742.34869	652.66290	715.40924	-801.54126	513.36090	471.59070	-740.88135	635.14276	480.31238	-719.22565	613.48926	271.19934	-563.21356	623.71423	318.95993	-516.84076	619.02252	270.29160	-511.30539	605.36127	220.28479	-490.32413	522.63239	181.57645	-448.24371	604.82495	190.18753	-412.23828	538.13263	205.52255	-338.45142	562.03046	41.07282	-529.05701	524.76965	46.37331	-474.92371	632.59167	63.88982	-445.32477	473.00702	1471.85360	-710.16864	492.08624	1209.92750	-616.90570	292.57455	1430.52620	-743.81451	640.48102	1414.85530	-799.38287	460.11145	1378.18570	-841.88080	612.06744	1349.87930	-659.95233
